<svg width="125" height="225" viewBox="0 0 125 225" fill="none" xmlns="http://www.w3.org/2000/svg">
<g id="Android Device">
<path id="Subtract" fill-rule="evenodd" clip-rule="evenodd" d="M0 18C0 8.05887 8.05887 0 18 0H107C116.941 0 125 8.05887 125 18V207C125 216.941 116.941 225 107 225H18C8.05887 225 0 216.941 0 207V18ZM5 20H120V195H5V20ZM48.5 10C47.6716 10 47 10.6716 47 11.5C47 12.3284 47.6716 13 48.5 13H75.5C76.3284 13 77 12.3284 77 11.5C77 10.6716 76.3284 10 75.5 10H48.5ZM47 210C47 207.791 48.7909 206 51 206H73C75.2091 206 77 207.791 77 210C77 212.209 75.2091 214 73 214H51C48.7909 214 47 212.209 47 210ZM42.5 10C41.6716 10 41 10.6716 41 11.5C41 12.3284 41.6716 13 42.5 13C43.3284 13 44 12.3284 44 11.5C44 10.6716 43.3284 10 42.5 10Z" fill="#151415"/>
<path id="Union" fill-rule="evenodd" clip-rule="evenodd" d="M51.9924 71.2691C55.0488 69.8063 58.4526 69.0002 62 69.0002C65.5474 69.0002 68.9512 69.8063 72.0076 71.2691L76.1863 65.4189L77 66.0002L72.9104 71.7256C78.1437 74.5169 82.2464 79.2806 84.1192 85.2111L85 88.0002H39L39.8808 85.2111C41.7536 79.2806 45.8563 74.5169 51.0896 71.7256L47 66.0002L47.8137 65.4189L51.9924 71.2691ZM53 82.0002C54.1046 82.0002 55 81.1048 55 80.0002C55 78.8956 54.1046 78.0002 53 78.0002C51.8954 78.0002 51 78.8956 51 80.0002C51 81.1048 51.8954 82.0002 53 82.0002ZM73 80.0002C73 81.1048 72.1046 82.0002 71 82.0002C69.8954 82.0002 69 81.1048 69 80.0002C69 78.8956 69.8954 78.0002 71 78.0002C72.1046 78.0002 73 78.8956 73 80.0002ZM32 90C29.2386 90 27 92.2386 27 95V115C27 117.761 29.2386 120 32 120C34.7614 120 37 117.761 37 115V95C37 92.2386 34.7614 90 32 90ZM92 90C89.2386 90 87 92.2386 87 95V115C87 117.761 89.2386 120 92 120C94.7614 120 97 117.761 97 115V95C97 92.2386 94.7614 90 92 90ZM59 130H65V145C65 147.761 67.2386 150 70 150C72.7614 150 75 147.761 75 145V130H81C83.2091 130 85 128.209 85 126V90H39V126C39 128.209 40.7909 130 43 130H49V145C49 147.761 51.2386 150 54 150C56.7614 150 59 147.761 59 145V130Z" fill="#74C043"/>
</g>
</svg>
