<svg width="117" height="225" viewBox="0 0 117 225" fill="none" xmlns="http://www.w3.org/2000/svg">
<g id="Group 5">
<path id="Fill 2" fill-rule="evenodd" clip-rule="evenodd" d="M70.8689 114.088C70.8173 108.366 75.568 105.582 75.7852 105.452C73.0947 101.541 68.9245 101.006 67.4591 100.964C63.9566 100.596 60.5592 103.054 58.775 103.054C56.9552 103.054 54.2077 100.999 51.2465 101.06C47.436 101.118 43.8712 103.318 41.9161 106.734C37.8812 113.699 40.8905 123.935 44.7562 129.565C46.6899 132.325 48.9495 135.401 51.9072 135.293C54.8007 135.176 55.8815 133.454 59.3733 133.454C62.833 133.454 63.848 135.293 66.8643 135.222C69.9697 135.176 71.9248 132.454 73.7909 129.67C76.0256 126.513 76.923 123.397 76.9586 123.237C76.8874 123.214 70.9295 120.947 70.8689 114.088Z" fill="#151415"/>
<path id="Fill 3" fill-rule="evenodd" clip-rule="evenodd" d="M65.171 97.26C66.7272 95.3194 67.792 92.6792 67.4964 90C65.244 90.0994 62.427 91.5536 60.8049 93.4516C59.3697 95.1241 58.0877 97.8655 58.4189 100.444C60.9491 100.632 63.547 99.1705 65.171 97.26Z" fill="#151415"/>
<path id="Combined Shape" fill-rule="evenodd" clip-rule="evenodd" d="M15 0C6.71573 0 0 6.71573 0 15V210C0 218.284 6.71573 225 15 225H102C110.284 225 117 218.284 117 210V15C117 6.71573 110.284 0 102 0H15ZM16 8C11.5817 8 8 11.5817 8 16V209C8 213.418 11.5817 217 16 217H101C105.418 217 109 213.418 109 209V16C109 11.5817 105.418 8 101 8H16Z" fill="#151415"/>
<path id="Rectangle" d="M32 8H86L82.7543 16.1142C82.2987 17.2531 81.1956 18 79.9689 18H38.0311C36.8044 18 35.7013 17.2531 35.2457 16.1142L32 8Z" fill="#151415"/>
</g>
</svg>
