<svg width="237" height="80" viewBox="0 0 237 80" fill="none" xmlns="http://www.w3.org/2000/svg">
<g id="appstore">
<path id="background" fill-rule="evenodd" clip-rule="evenodd" d="M9.60001 0C4.29807 0 0 4.29807 0 9.6V70.4C0 75.7019 4.29807 80 9.6 80H227.4C232.702 80 237 75.7019 237 70.4V9.6C237 4.29807 232.702 0 227.4 0H9.60001Z" fill="black"/>
<g id="icon">
<path id="Fill 2" fill-rule="evenodd" clip-rule="evenodd" d="M51.8834 38.1687C51.8318 32.4462 56.5824 29.6622 56.7997 29.5326C54.1092 25.6212 49.939 25.0867 48.4735 25.0441C44.971 24.6766 41.5736 27.1339 39.7895 27.1339C37.9697 27.1339 35.2222 25.0796 32.261 25.14C28.4505 25.1986 24.8857 27.3984 22.9306 30.8145C18.8957 37.7798 21.9049 48.0156 25.7707 53.6458C27.7044 56.4049 29.964 59.4819 32.9216 59.3736C35.8151 59.2564 36.896 57.5341 40.3877 57.5341C43.8475 57.5341 44.8624 59.3736 47.8788 59.3025C50.9842 59.2564 52.9393 56.5345 54.8054 53.7505C57.0401 50.5937 57.9375 47.4777 57.9731 47.3179C57.9019 47.2948 51.9439 45.0275 51.8834 38.1687Z" fill="white"/>
<path id="Fill 3" fill-rule="evenodd" clip-rule="evenodd" d="M46.1854 21.3404C47.7417 19.3998 48.8065 16.7596 48.5109 14.0804C46.2584 14.1798 43.4415 15.634 41.8194 17.532C40.3842 19.2045 39.1021 21.9459 39.4333 24.5239C41.9636 24.7121 44.5615 23.2509 46.1854 21.3404Z" fill="white"/>
</g>
<g id="App Store">
<path id="Fill 4" fill-rule="evenodd" clip-rule="evenodd" d="M93.7937 58.9776H89.75L87.5349 52.0372H79.8355L77.7255 58.9776H73.7885L81.4185 35.3492H86.13L93.7937 58.9776ZM86.8671 49.1253L84.8639 42.9572C84.6521 42.3251 84.2532 40.8408 83.6692 38.5043H83.5979C83.3629 39.5092 82.9872 40.9935 82.4726 42.9572L80.5032 49.1253H86.8671Z" fill="white"/>
<path id="Fill 5" fill-rule="evenodd" clip-rule="evenodd" d="M113.377 50.2492C113.377 53.1469 112.588 55.4373 111.009 57.1187C109.595 58.6154 107.837 59.3629 105.742 59.3629C103.479 59.3629 101.851 58.5586 100.863 56.9447V65.8844H97.0665V47.5398C97.0665 45.7199 97.0184 43.8539 96.9258 41.9399H100.264L100.476 44.6422H100.548C101.814 42.6057 103.735 41.5883 106.313 41.5883C108.329 41.5883 110.012 42.382 111.358 43.971C112.702 45.5637 113.377 47.6552 113.377 50.2492ZM109.509 50.3877C109.509 48.7294 109.136 47.3623 108.384 46.2863C107.563 45.166 106.461 44.6031 105.079 44.6031C104.143 44.6031 103.292 44.9156 102.531 45.5335C101.769 46.1531 101.271 46.9646 101.037 47.9713C100.92 48.4382 100.861 48.82 100.861 49.1218V51.9662C100.861 53.2019 101.242 54.2477 102.004 55.1035C102.766 55.9557 103.756 56.3836 104.974 56.3836C106.404 56.3836 107.517 55.8314 108.313 54.7359C109.111 53.6369 109.509 52.1881 109.509 50.3877Z" fill="white"/>
<path id="Fill 6" fill-rule="evenodd" clip-rule="evenodd" d="M133.03 50.2492C133.03 53.1469 132.241 55.4373 130.661 57.1187C129.246 58.6154 127.49 59.3629 125.393 59.3629C123.131 59.3629 121.504 58.5586 120.514 56.9447V65.8844H116.717V47.5398C116.717 45.7199 116.669 43.8539 116.577 41.9399H119.915L120.127 44.6422H120.198C121.463 42.6057 123.384 41.5883 125.964 41.5883C127.978 41.5883 129.662 42.382 131.01 43.971C132.353 45.5637 133.03 47.6552 133.03 50.2492ZM129.16 50.3877C129.16 48.7294 128.785 47.3623 128.033 46.2863C127.214 45.166 126.114 44.6031 124.732 44.6031C123.795 44.6031 122.944 44.9156 122.18 45.5335C121.42 46.1531 120.921 46.9646 120.688 47.9713C120.572 48.4382 120.51 48.82 120.51 49.1218V51.9662C120.51 53.2019 120.893 54.2477 121.651 55.1035C122.414 55.9539 123.404 56.3836 124.625 56.3836C126.057 56.3836 127.17 55.8314 127.964 54.7359C128.761 53.6369 129.16 52.1881 129.16 50.3877Z" fill="white"/>
<path id="Fill 7" fill-rule="evenodd" clip-rule="evenodd" d="M155.002 52.3514C155.002 54.3613 154.299 55.9965 152.896 57.2589C151.354 58.6367 149.201 59.3274 146.441 59.3274C143.891 59.3274 141.847 58.8373 140.305 57.8555L141.183 54.7004C142.848 55.6823 144.677 56.1741 146.667 56.1741C148.099 56.1741 149.212 55.8509 150.006 55.21C150.804 54.5655 151.204 53.7079 151.204 52.6355C151.204 51.675 150.873 50.8689 150.218 50.2137C149.561 49.5621 148.475 48.9513 146.95 48.3938C142.802 46.8509 140.725 44.5925 140.725 41.6256C140.725 39.6867 141.459 38.0994 142.921 36.8583C144.385 35.619 146.325 34.9994 148.74 34.9994C150.896 34.9994 152.693 35.374 154.119 36.1215L153.167 39.2073C151.824 38.4829 150.309 38.1207 148.614 38.1207C147.275 38.1207 146.222 38.4492 145.473 39.1026C144.84 39.6867 144.518 40.3987 144.518 41.2438C144.518 42.176 144.883 42.9501 145.611 43.5556C146.242 44.1166 147.392 44.7256 149.055 45.379C151.096 46.1993 152.593 47.1545 153.555 48.2518C154.522 49.349 155.002 50.718 155.002 52.3514Z" fill="white"/>
<path id="Fill 8" fill-rule="evenodd" clip-rule="evenodd" d="M167.586 44.7806H163.402V53.0527C163.402 55.1567 164.139 56.206 165.617 56.206C166.295 56.206 166.858 56.1492 167.303 56.0303L167.408 58.9048C166.66 59.1836 165.675 59.3238 164.457 59.3238C162.956 59.3238 161.787 58.8657 160.939 57.9549C160.095 57.0423 159.673 55.5136 159.673 53.3617V44.7735H157.182V41.9327H159.673V38.8132L163.402 37.691V41.9327H167.586V44.7806Z" fill="white"/>
<path id="Fill 9" fill-rule="evenodd" clip-rule="evenodd" d="M186.429 50.3185C186.429 52.9373 185.679 55.0875 184.178 56.7689C182.609 58.4982 180.522 59.3629 177.921 59.3629C175.41 59.3629 173.414 58.5337 171.925 56.8754C170.437 55.2171 169.693 53.1255 169.693 50.6026C169.693 47.9624 170.464 45.7998 171.995 44.1184C173.53 42.437 175.599 41.5936 178.2 41.5936C180.709 41.5936 182.721 42.4263 184.247 44.0829C185.704 45.6933 186.429 47.7688 186.429 50.3185ZM182.493 50.4055C182.493 48.8448 182.155 47.5061 181.477 46.3857C180.681 45.0328 179.539 44.3581 178.065 44.3581C176.546 44.3581 175.376 45.0328 174.584 46.3857C173.902 47.5061 173.565 48.8679 173.565 50.4765C173.565 52.0389 173.902 53.3812 174.584 54.4962C175.405 55.851 176.55 56.5274 178.035 56.5274C179.484 56.5274 180.622 55.835 181.446 54.4643C182.143 53.3173 182.493 51.9697 182.493 50.4055Z" fill="white"/>
<path id="Fill 10" fill-rule="evenodd" clip-rule="evenodd" d="M198.774 45.2689C198.398 45.1997 197.995 45.166 197.577 45.166C196.242 45.166 195.209 45.6649 194.482 46.6734C193.85 47.5611 193.535 48.6832 193.535 50.038V58.9776H189.739V47.3055C189.739 45.3435 189.701 43.552 189.628 41.9416H192.935L193.074 45.2015H193.179C193.581 44.0811 194.212 43.1774 195.077 42.5027C195.925 41.8919 196.836 41.5883 197.821 41.5883C198.172 41.5883 198.489 41.615 198.77 41.6576L198.774 45.2689Z" fill="white"/>
<path id="Fill 11" fill-rule="evenodd" clip-rule="evenodd" d="M215.752 49.6526C215.752 50.3309 215.707 50.9026 215.613 51.3695H204.226C204.267 53.0527 204.82 54.3417 205.876 55.2295C206.836 56.0214 208.079 56.4191 209.601 56.4191C211.288 56.4191 212.826 56.1528 214.21 55.613L214.804 58.2408C213.188 58.9421 211.277 59.2936 209.076 59.2936C206.427 59.2936 204.347 58.516 202.833 56.9642C201.325 55.4106 200.567 53.3208 200.567 50.7073C200.567 48.1399 201.268 46.0004 202.678 44.2942C204.153 42.4725 206.145 41.5616 208.652 41.5616C211.115 41.5616 212.979 42.4725 214.244 44.2942C215.248 45.7376 215.752 47.5273 215.752 49.6526ZM212.132 48.6708C212.158 47.5469 211.909 46.581 211.395 45.7607C210.737 44.7061 209.726 44.1805 208.371 44.1805C207.128 44.1805 206.119 44.6936 205.349 45.7234C204.717 46.5419 204.341 47.5273 204.226 48.6672L212.132 48.6708Z" fill="white"/>
</g>
<g id="Available on the">
<path id="Fill 12" fill-rule="evenodd" clip-rule="evenodd" d="M85.0367 26.8924H83.0477L81.9598 23.4817H78.176L77.1379 26.8924H75.2023L78.9523 15.2788H81.2671L85.0367 26.8924ZM81.6321 22.0506L80.6475 19.018C80.5442 18.7073 80.3537 17.9847 80.0599 16.8306H80.0242C79.9032 17.3295 79.7304 18.0539 79.4705 19.018L78.5036 22.0506H81.6321Z" fill="white"/>
<path id="Fill 13" fill-rule="evenodd" clip-rule="evenodd" d="M94.4134 18.5192L91.2332 26.8925H89.4188L86.3419 18.5192H88.3468L89.782 22.9473C90.0242 23.6877 90.2307 24.3943 90.3856 25.0655H90.4373C90.5762 24.4636 90.7827 23.7569 91.0409 22.9473L92.4583 18.5192H94.4134Z" fill="white"/>
<path id="Fill 14" fill-rule="evenodd" clip-rule="evenodd" d="M101.183 26.8924L101.044 25.9283H100.993C100.423 26.7042 99.5932 27.0824 98.5391 27.0824C97.0363 27.0824 95.9643 26.0313 95.9643 24.618C95.9643 22.5513 97.761 21.4825 100.872 21.4825V21.328C100.872 20.2254 100.284 19.6732 99.1267 19.6732C98.2969 19.6732 97.5704 19.881 96.933 20.2947L96.5537 19.0713C97.3318 18.5884 98.2987 18.3469 99.4401 18.3469C101.634 18.3469 102.741 19.501 102.741 21.8109V24.895C102.741 25.7401 102.777 26.3953 102.862 26.8942L101.183 26.8924ZM100.923 22.7218C98.8489 22.7218 97.8126 23.2225 97.8126 24.4103C97.8126 25.2892 98.3486 25.7188 99.0911 25.7188C100.042 25.7188 100.923 24.9962 100.923 24.0143V22.7218Z" fill="white"/>
<path id="Fill 15" fill-rule="evenodd" clip-rule="evenodd" d="M106.897 17.1396C106.276 17.1396 105.792 16.6566 105.792 16.0192C105.792 15.3818 106.292 14.9166 106.933 14.9166C107.572 14.9166 108.09 15.3818 108.073 16.0192C108.073 16.6921 107.59 17.1396 106.897 17.1396ZM106 18.5191H107.866V26.8924H106V18.5191Z" fill="white"/>
<path id="Fill 16" fill-rule="evenodd" clip-rule="evenodd" d="M111.181 14.6769H113.048V26.8924H111.181L111.181 14.6769Z" fill="white"/>
<path id="Fill 17" fill-rule="evenodd" clip-rule="evenodd" d="M120.978 26.8924L120.838 25.9283H120.788C120.218 26.7042 119.388 27.0824 118.334 27.0824C116.831 27.0824 115.759 26.0313 115.759 24.618C115.759 22.5513 117.556 21.4825 120.667 21.4825V21.328C120.667 20.2254 120.079 19.6732 118.922 19.6732C118.092 19.6732 117.366 19.881 116.728 20.2947L116.347 19.0696C117.125 18.5866 118.092 18.3452 119.233 18.3452C121.427 18.3452 122.536 19.4992 122.536 21.8092V24.8932C122.536 25.7384 122.572 26.3935 122.654 26.8924H120.978ZM120.718 22.7218C118.644 22.7218 117.608 23.2225 117.608 24.4103C117.608 25.2892 118.144 25.7188 118.886 25.7188C119.837 25.7188 120.718 24.9962 120.718 24.0143V22.7218Z" fill="white"/>
<path id="Fill 18" fill-rule="evenodd" clip-rule="evenodd" d="M130.095 27.0824C128.904 27.0824 128.024 26.5817 127.453 25.5999H127.417L127.31 26.8924H125.722C125.772 26.2213 125.79 25.4614 125.79 24.6358V14.6769H127.659V19.7442H127.693C128.247 18.8139 129.144 18.3487 130.371 18.3487C132.394 18.3487 133.811 20.0727 133.811 22.5868C133.811 25.1862 132.237 27.0824 130.095 27.0824ZM129.716 19.8099C128.642 19.8099 127.659 20.7403 127.659 22.0329V23.4977C127.659 24.6517 128.542 25.5999 129.682 25.5999C131.08 25.5999 131.913 24.4635 131.913 22.6543C131.911 20.9658 131.046 19.8099 129.716 19.8099Z" fill="white"/>
<path id="Fill 19" fill-rule="evenodd" clip-rule="evenodd" d="M136.573 14.6769H138.437V26.8924H136.573V14.6769Z" fill="white"/>
<path id="Fill 20" fill-rule="evenodd" clip-rule="evenodd" d="M148.594 23.1532H142.992C143.03 24.7387 144.08 25.6336 145.635 25.6336C146.466 25.6336 147.226 25.4951 147.9 25.2377L148.19 26.5302C147.396 26.8747 146.463 27.0469 145.375 27.0469C142.746 27.0469 141.192 25.3921 141.192 22.8265C141.192 20.2591 142.784 18.3292 145.166 18.3292C147.307 18.3292 148.658 19.9147 148.658 22.3098C148.663 22.6365 148.647 22.9295 148.594 23.1532ZM146.885 21.8269C146.885 20.5343 146.226 19.6217 145.033 19.6217C143.961 19.6217 143.117 20.5521 142.992 21.8269H146.885Z" fill="white"/>
<path id="Fill 21" fill-rule="evenodd" clip-rule="evenodd" d="M159.904 27.0824C157.451 27.0824 155.861 25.2554 155.861 22.775C155.861 20.1899 157.485 18.3469 160.045 18.3469C162.461 18.3469 164.089 20.0869 164.089 22.6383C164.089 25.2554 162.412 27.0824 159.904 27.0824ZM159.976 19.707C158.628 19.707 157.764 20.964 157.764 22.7218C157.764 24.4458 158.646 25.7029 159.958 25.7029C161.27 25.7029 162.152 24.3588 162.152 22.6863C162.152 20.9818 161.288 19.707 159.976 19.707Z" fill="white"/>
<path id="Fill 22" fill-rule="evenodd" clip-rule="evenodd" d="M174.121 26.8924H172.258V22.0844C172.258 20.6036 171.687 19.8614 170.563 19.8614C169.457 19.8614 168.695 20.8096 168.695 21.9121V26.8924H166.833V20.9125C166.833 20.1722 166.811 19.3785 166.762 18.5174H168.403L168.491 19.8099H168.544C169.041 18.9151 170.063 18.3452 171.204 18.3452C172.963 18.3452 174.121 19.6892 174.121 21.8766V26.8924Z" fill="white"/>
<path id="Fill 23" fill-rule="evenodd" clip-rule="evenodd" d="M186.331 19.9147H184.278V23.9806C184.278 25.0157 184.639 25.5324 185.364 25.5324C185.691 25.5324 185.971 25.4969 186.193 25.4454L186.245 26.8587C185.882 26.9972 185.396 27.0664 184.796 27.0664C183.323 27.0664 182.447 26.2568 182.447 24.1368V19.9147H181.224V18.5191H182.447V16.9851L184.278 16.4329V18.5174H186.331V19.9147Z" fill="white"/>
<path id="Fill 24" fill-rule="evenodd" clip-rule="evenodd" d="M196.213 26.8924H194.345V22.1199C194.345 20.6213 193.774 19.8632 192.652 19.8632C191.685 19.8632 190.787 20.5184 190.787 21.8447V26.8924H188.92V14.6769H190.787V19.707H190.823C191.409 18.7943 192.258 18.3451 193.346 18.3451C195.125 18.3451 196.213 19.7229 196.213 21.9121V26.8924Z" fill="white"/>
<path id="Fill 25" fill-rule="evenodd" clip-rule="evenodd" d="M205.748 23.1532H200.148C200.184 24.7387 201.234 25.6336 202.791 25.6336C203.624 25.6336 204.382 25.4951 205.052 25.2377L205.344 26.5302C204.552 26.8747 203.617 27.0469 202.527 27.0469C199.901 27.0469 198.346 25.3921 198.346 22.8265C198.346 20.2591 199.936 18.3292 202.319 18.3292C204.461 18.3292 205.811 19.9147 205.811 22.3098C205.818 22.6365 205.8 22.9295 205.748 23.1532ZM204.037 21.8269C204.037 20.5343 203.382 19.6217 202.189 19.6217C201.117 19.6217 200.271 20.5521 200.148 21.8269H204.037Z" fill="white"/>
</g>
</g>
</svg>
