<svg width="100" height="100" viewBox="0 0 100 100" fill="none" xmlns="http://www.w3.org/2000/svg">
<g id="regular_chat">
<g id="Union">
<path fill-rule="evenodd" clip-rule="evenodd" d="M50.8334 12.5C34.2648 12.5 20.8333 25.9315 20.8333 42.5001C20.8333 57.6422 32.0516 70.1641 46.6302 72.208V87.4999L70.8874 64.8712L70.7937 64.8967C76.9543 59.4024 80.8335 51.4043 80.8335 42.5001C80.8335 25.9315 67.402 12.5 50.8334 12.5Z" fill="#53A8CB"/>
<path d="M46.6302 72.208H49.1302V70.0341L46.9773 69.7323L46.6302 72.208ZM46.6302 87.4999H44.1302V93.2509L48.3356 89.3279L46.6302 87.4999ZM70.8874 64.8712L72.5928 66.6993L70.2311 62.4589L70.8874 64.8712ZM70.7937 64.8967L69.1298 63.0309L71.4501 67.309L70.7937 64.8967ZM23.3333 42.5001C23.3333 27.3122 35.6456 15 50.8334 15V10C32.8841 10 18.3333 24.5508 18.3333 42.5001H23.3333ZM46.9773 69.7323C33.616 67.859 23.3333 56.3782 23.3333 42.5001H18.3333C18.3333 58.9061 30.4872 72.4692 46.2831 74.6838L46.9773 69.7323ZM49.1302 87.4999V72.208H44.1302V87.4999H49.1302ZM69.1821 63.0432L44.9249 85.6718L48.3356 89.3279L72.5928 66.6993L69.1821 63.0432ZM71.4501 67.309L71.5438 67.2835L70.2311 62.4589L70.1374 62.4844L71.4501 67.309ZM78.3335 42.5001C78.3335 50.662 74.781 57.9909 69.1298 63.0309L72.4577 66.7625C79.1277 60.8139 83.3335 52.1465 83.3335 42.5001H78.3335ZM50.8334 15C66.0213 15 78.3335 27.3122 78.3335 42.5001H83.3335C83.3335 24.5508 68.7827 10 50.8334 10V15Z" fill="#53A8CB"/>
</g>
</g>
</svg>
