<svg width="18" height="20" viewBox="0 0 18 20" fill="none" xmlns="http://www.w3.org/2000/svg">
<path id="Stroke 1" d="M9.05685 0.804056L8.83515 0.559613L8.62029 0.809098L8.62015 0.809259L8.62 0.809432L8.61993 0.809509L8.6198 0.809668L8.61664 0.813211C8.6133 0.816936 8.60767 0.823145 8.59972 0.831663C8.58383 0.848699 8.55866 0.874961 8.52402 0.909041C8.45474 0.977208 8.34761 1.07661 8.201 1.196C7.90779 1.43477 7.4568 1.75341 6.83475 2.06229C5.59273 2.67902 3.65996 3.26127 0.92404 3.08217L0.613322 3.06183V3.37322V10.6629L0.612325 10.675C0.611034 10.6916 0.609336 10.7153 0.607545 10.7458C0.603965 10.8067 0.600014 10.8947 0.598225 11.006C0.594649 11.2284 0.599699 11.5447 0.633787 11.9251C0.701844 12.6847 0.88632 13.7076 1.35479 14.7517C1.82416 15.7978 2.57935 16.8662 3.78606 17.7074C4.99293 18.5488 6.63496 19.1513 8.85996 19.291L8.8671 19.2915L8.87425 19.2916L8.87824 18.9999C8.87425 19.2916 8.87443 19.2916 8.87464 19.2916L8.87522 19.2916L8.87692 19.2916L8.88249 19.2916L8.90218 19.2917C8.91904 19.2916 8.94329 19.2914 8.97445 19.2907C9.03674 19.2894 9.12669 19.2863 9.24036 19.2793C9.46758 19.2653 9.79018 19.2357 10.1765 19.1732C10.9478 19.0484 11.9805 18.7913 13.0167 18.26C14.0543 17.7279 15.0989 16.9189 15.8831 15.6912C16.6679 14.4625 17.1806 12.8319 17.1806 10.6754V3.37322V3.05512L16.8638 3.08263L16.8637 3.08264L16.8637 3.08264L16.8633 3.08267L16.861 3.08287L16.8505 3.0837L16.807 3.08686C16.7682 3.08952 16.7102 3.09311 16.6351 3.09672C16.4847 3.10394 16.2658 3.11121 15.9946 3.11121C15.4517 3.11121 14.7019 3.08204 13.874 2.96573C12.2055 2.7313 10.2784 2.15095 9.05685 0.804056Z" fill="white" stroke="#53A8CB" stroke-width="0.583333"/>
</svg>
