<svg width="24" height="24" viewBox="0 0 24 24" fill="none" xmlns="http://www.w3.org/2000/svg">
<path id="Facebook" fill-rule="evenodd" clip-rule="evenodd" d="M12.8192 24H1.32462C0.592836 24 0 23.4068 0 22.6753V1.3246C0 0.592924 0.592929 0 1.32462 0H22.6755C23.407 0 24 0.592924 24 1.3246V22.6753C24 23.4069 23.4069 24 22.6755 24H16.5597V14.7059H19.6793L20.1464 11.0838H16.5597V8.77131C16.5597 7.72264 16.8509 7.008 18.3546 7.008L20.2727 7.00716V3.76754C19.9409 3.7234 18.8024 3.62478 17.4778 3.62478C14.7124 3.62478 12.8192 5.31276 12.8192 8.4126V11.0838H9.69156V14.7059H12.8192V24Z" fill="#4460A0"/>
</svg>
