<svg width="24" height="24" viewBox="0 0 24 24" fill="none" xmlns="http://www.w3.org/2000/svg">
<g id="Language">
<path id="Union" fill-rule="evenodd" clip-rule="evenodd" d="M10.2071 4.20707C8.58833 4.58221 7.15725 5.44705 6.07836 6.63709C6.09889 6.64835 6.12015 6.65991 6.14212 6.67176C6.45727 6.84171 6.91785 7.06997 7.49231 7.2986C7.70652 7.38385 7.93601 7.46894 8.1792 7.55097C8.4978 6.78958 8.86807 6.11585 9.23682 5.53968C9.57311 5.01422 9.90952 4.56767 10.2071 4.20707ZM5.44607 7.42932C4.62425 8.60351 4.10871 10.0078 4.01538 11.5263H7.27435C7.32362 10.4206 7.53294 9.40364 7.83072 8.48875C7.57976 8.40351 7.34318 8.31554 7.12253 8.22772C6.50682 7.98267 6.01109 7.73724 5.66746 7.55193C5.58478 7.50734 5.51084 7.46619 5.44607 7.42932ZM4.01538 12.5263C4.10871 14.0448 4.62425 15.4491 5.44607 16.6233C5.51084 16.5864 5.58478 16.5453 5.66746 16.5007C6.01109 16.3154 6.50682 16.07 7.12253 15.8249C7.34318 15.7371 7.57976 15.6491 7.83072 15.5639C7.53294 14.649 7.32362 13.632 7.27435 12.5263H4.01538ZM6.07836 17.4155C7.15725 18.6056 8.58833 19.4704 10.2071 19.8456C9.90953 19.485 9.57311 19.0384 9.23682 18.5129C8.86807 17.9368 8.4978 17.263 8.1792 16.5017C7.93601 16.5837 7.70652 16.6688 7.49231 16.754C6.91785 16.9827 6.45727 17.2109 6.14212 17.3809C6.12015 17.3927 6.09889 17.4043 6.07836 17.4155ZM13.8457 19.8456C15.4644 19.4704 16.8955 18.6056 17.9744 17.4155C17.9539 17.4043 17.9326 17.3927 17.9106 17.3809C17.5955 17.2109 17.1349 16.9827 16.5604 16.754C16.3462 16.6688 16.1167 16.5837 15.8736 16.5017C15.555 17.263 15.1847 17.9368 14.8159 18.5129C14.4796 19.0384 14.1432 19.485 13.8457 19.8456ZM18.6067 16.6233C19.4285 15.4491 19.944 14.0448 20.0374 12.5263H16.7784C16.7291 13.632 16.5198 14.649 16.222 15.5639C16.473 15.6491 16.7096 15.7371 16.9302 15.8249C17.5459 16.07 18.0417 16.3154 18.3853 16.5007C18.468 16.5453 18.5419 16.5864 18.6067 16.6233ZM20.0374 11.5263C19.944 10.0078 19.4285 8.60351 18.6067 7.42932C18.5419 7.46619 18.468 7.50734 18.3853 7.55193C18.0417 7.73724 17.5459 7.98267 16.9302 8.22772C16.7096 8.31554 16.473 8.40351 16.222 8.48875C16.5198 9.40364 16.7291 10.4206 16.7784 11.5263H20.0374ZM17.9744 6.63709C16.8955 5.44705 15.4644 4.5822 13.8457 4.20707C14.1432 4.56767 14.4796 5.01422 14.8159 5.53968C15.1847 6.11585 15.555 6.78958 15.8736 7.55097C16.1167 7.46894 16.3462 7.38385 16.5604 7.2986C17.1349 7.06997 17.5955 6.84171 17.9106 6.67176C17.9326 6.65991 17.9539 6.64834 17.9744 6.63709ZM12.0264 3C7.04128 3 3.00006 7.04122 3.00006 12.0263C3.00006 17.0114 7.04128 21.0526 12.0264 21.0526C17.0115 21.0526 21.0527 17.0114 21.0527 12.0263C21.0527 7.04122 17.0115 3 12.0264 3ZM8.27545 11.5263C8.32432 10.5289 8.5161 9.60869 8.78844 8.77742C9.60803 8.99333 10.533 9.15748 11.5264 9.19983V11.5263H8.27545ZM9.14421 7.83659C9.86673 8.02073 10.6704 8.15899 11.5264 8.19883V4.22537C11.467 4.28737 11.4016 4.35737 11.3312 4.43515C10.9909 4.81084 10.5351 5.36617 10.0791 6.07874C9.75249 6.58905 9.42727 7.17757 9.14421 7.83659ZM12.5264 11.5263V9.19983C13.5198 9.15748 14.4447 8.99333 15.2643 8.77742C15.5367 9.60869 15.7284 10.5289 15.7773 11.5263H12.5264ZM12.5264 8.19883C13.3823 8.15899 14.186 8.02073 14.9085 7.83659C14.6255 7.17757 14.3003 6.58905 13.9737 6.07874C13.5176 5.36617 13.0618 4.81084 12.7216 4.43515C12.6511 4.35737 12.5857 4.28737 12.5264 4.22537V8.19883ZM12.5264 12.5263H15.7773C15.7284 13.5237 15.5367 14.4439 15.2643 15.2752C14.4447 15.0593 13.5198 14.8952 12.5264 14.8528V12.5263ZM12.5264 15.8538C13.3823 15.8936 14.186 16.0319 14.9085 16.216C14.6255 16.8751 14.3003 17.4636 13.9737 17.9739C13.5176 18.6865 13.0618 19.2418 12.7216 19.6175C12.6511 19.6953 12.5857 19.7653 12.5264 19.8273V15.8538ZM11.5264 12.5263V14.8528C10.533 14.8952 9.60803 15.0593 8.78844 15.2752C8.5161 14.4439 8.32432 13.5237 8.27545 12.5263H11.5264ZM11.5264 15.8538C10.6704 15.8936 9.86673 16.0319 9.14421 16.216C9.42727 16.8751 9.75249 17.4636 10.0791 17.9739C10.5351 18.6865 10.9909 19.2418 11.3312 19.6175C11.4016 19.6953 11.467 19.7653 11.5264 19.8273V15.8538Z" fill="#164664"/>
</g>
</svg>
