<svg width="26" height="24" viewBox="0 0 26 24" fill="none" xmlns="http://www.w3.org/2000/svg">
<path id="LinkedIn1" fill-rule="evenodd" clip-rule="evenodd" d="M26 24H20.2536V15.563C20.2536 13.3547 19.3548 11.8471 17.3782 11.8471C15.8663 11.8471 15.0255 12.8644 14.6342 13.8449C14.4874 14.1968 14.5104 14.6871 14.5104 15.1773V24H8.8175C8.8175 24 8.89088 9.05475 8.8175 7.69623H14.5104V10.255C14.8467 9.1362 16.6658 7.53948 19.5688 7.53948C23.1704 7.53948 26 9.88462 26 14.9345V24ZM3.06044 5.65694H3.02375C1.18932 5.65694 0 4.4106 0 2.83078C0 1.22022 1.22448 1.14441e-05 3.0956 1.14441e-05C4.96519 1.14441e-05 6.11477 1.21715 6.15146 2.82617C6.15146 4.40599 4.96519 5.65694 3.06044 5.65694ZM0.655807 7.69625H5.72342V24H0.655807V7.69625Z" fill="#007EBB"/>
</svg>
