<svg width="113" height="25" viewBox="0 0 113 25" fill="none" xmlns="http://www.w3.org/2000/svg">
<g id="Component 1">
<path id="T" fill-rule="evenodd" clip-rule="evenodd" d="M5.67622 0.117615C3.01226 0.117615 0.852692 2.27718 0.852692 4.94114H14.1174C16.7813 4.94114 18.9409 2.78157 18.9409 0.117615H5.67622ZM12.3086 6.14701H7.48511V21.8235C7.48511 23.1555 8.5649 24.2352 9.89688 24.2352C11.2289 24.2352 12.3086 23.1554 12.3086 21.8235V6.14701Z" fill="#53A8CB"/>
<path id="H" fill-rule="evenodd" clip-rule="evenodd" d="M113 4.63967C113 2.14221 110.975 0.117615 108.478 0.117615V7.3529H103.353C100.689 7.3529 98.5291 9.51247 98.5291 12.1764H108.478V24.2352C110.975 24.2352 113 22.2106 113 19.7132V4.63967ZM98.5291 17H103.353V24.2353C100.689 24.2353 98.5291 22.0757 98.5291 19.4117V17Z" fill="#53A8CB"/>
<path id="U" fill-rule="evenodd" clip-rule="evenodd" d="M45.7115 9.76468H51.4997V7.3529C51.4997 6.02092 52.5795 4.94114 53.9114 4.94114C55.2434 4.94114 56.3232 6.02092 56.3232 7.3529V13.9853C56.3232 14.6512 56.8631 15.1911 57.5291 15.1911C58.1951 15.1911 58.735 14.6512 58.735 13.9853V7.3529C58.735 6.02092 59.8148 4.94114 61.1467 4.94114C62.4787 4.94114 63.5585 6.02092 63.5585 7.3529V9.76468H69.3467C68.2294 4.26045 63.3631 0.117615 57.5291 0.117615C51.6952 0.117615 46.8288 4.26045 45.7115 9.76468ZM51.5295 14.5882H45.7115C46.8288 20.0924 51.6952 24.2352 57.5291 24.2352C63.3631 24.2352 68.2294 20.0924 69.3467 14.5882H63.5287C63.2262 17.6351 60.6555 20.0147 57.5291 20.0147C54.4026 20.0147 51.832 17.6351 51.5295 14.5882Z" fill="#EC99BA"/>
<path id="O" fill-rule="evenodd" clip-rule="evenodd" d="M30.9996 19.4065C27.8523 19.4065 25.1746 17.3954 24.1816 14.5882H19.1821C20.2994 20.0924 25.1657 24.2352 30.9996 24.2352C36.8336 24.2352 41.6999 20.0924 42.8172 14.5882H37.8177C36.8247 17.3954 34.147 19.4065 30.9996 19.4065ZM30.9996 4.94634C27.8523 4.94634 25.1746 6.95743 24.1816 9.76468H19.1821C20.2993 4.26045 25.1657 0.117615 30.9996 0.117615C36.8336 0.117615 41.7 4.26045 42.8172 9.76468H37.8177C36.8247 6.95743 34.147 4.94634 30.9996 4.94634ZM30.9997 9.76468C29.6677 9.76468 28.5879 10.8445 28.5879 12.1764C28.5879 13.5084 29.6677 14.5882 30.9997 14.5882C32.3317 14.5882 33.4115 13.5084 33.4115 12.1764C33.4115 10.8445 32.3317 9.76468 30.9997 9.76468Z" fill="#8881B9"/>
<path id="Subtract" fill-rule="evenodd" clip-rule="evenodd" d="M72.2648 9.77507H75.9781C76.3654 8.47533 77.0722 7.25049 78.0985 6.22418C81.3949 2.9277 86.7396 2.9277 90.0361 6.22418L91.0939 7.28197C92.0357 8.22383 92.0357 9.75087 91.0939 10.6927C90.152 11.6346 88.625 11.6346 87.6831 10.6927L86.6253 9.63493C85.2126 8.22215 82.922 8.22215 81.5092 9.63493C80.0964 11.0477 80.0964 13.3383 81.5092 14.7511C82.922 16.1638 85.2126 16.1638 86.6253 14.7511L87.6831 13.6933C88.625 12.7514 90.152 12.7514 91.0939 13.6933C92.0357 14.6351 92.0357 16.1622 91.0939 17.104L90.0361 18.1618C86.7396 21.4583 81.3949 21.4583 78.0985 18.1618C77.0703 17.1336 76.3628 15.9062 75.976 14.6038H72.2701C73.3934 20.1002 78.2561 24.2352 84.0845 24.2352C90.7444 24.2352 96.1433 18.8363 96.1433 12.1764C96.1433 5.51653 90.7444 0.117615 84.0845 0.117615C78.2469 0.117615 73.3781 4.26567 72.2648 9.77507ZM82.5437 12.2032C82.5437 11.3707 83.2186 10.6959 84.0511 10.6959C84.8836 10.6959 85.5584 11.3707 85.5584 12.2032C85.5584 13.0357 84.8836 13.7106 84.0511 13.7106C83.2186 13.7106 82.5437 13.0357 82.5437 12.2032Z" fill="#53A8CB"/>
</g>
</svg>
