<svg width="35" height="35" viewBox="0 0 35 35" fill="none" xmlns="http://www.w3.org/2000/svg">
<g id="Group 95">
<ellipse id="Ellipse 3" cx="1.72559" cy="2.11114" rx="1.72559" ry="1.72589" fill="#53A8CB"/>
<ellipse id="Ellipse 4" cx="32.7861" cy="2.11114" rx="1.72559" ry="1.72589" fill="#53A8CB"/>
<rect id="Rectangle 481" x="15.5304" y="0.385254" width="3.45118" height="3.45178" fill="#53A8CB"/>
<rect id="Rectangle 484" x="29.3348" y="14.1924" width="3.45118" height="3.45178" fill="#53A8CB"/>
<path id="Ellipse 5" d="M31.0607 15.9182C31.0607 8.29274 24.8801 2.11108 17.256 2.11108C9.63187 2.11108 3.45129 8.29274 3.45129 15.9182" stroke="#53A8CB" stroke-width="0.498217"/>
<rect id="Rectangle 483" x="1.72595" y="14.1924" width="3.45118" height="3.45178" fill="#53A8CB"/>
<rect id="Rectangle 482" x="3.27875" y="1.76611" width="27.9545" height="0.690355" fill="#53A8CB"/>
<path id="Subtract" fill-rule="evenodd" clip-rule="evenodd" d="M15.7027 4.69995H17.0831V15.9269C16.2112 16.0135 15.5301 16.7493 15.5301 17.6442C15.5301 18.5391 16.2112 19.275 17.0831 19.3616V23.6847H12.9417C12.9417 23.6847 12.5836 21.5147 12.2515 20.1467C11.9118 18.7476 11.2161 16.6086 11.2161 16.6086C11.2161 16.6086 13.7782 13.1907 14.6673 10.6543C15.448 8.42697 15.7027 4.69995 15.7027 4.69995ZM17.4283 19.3616V23.6848H21.5698C21.5698 23.6848 21.9279 21.5147 22.26 20.1467C22.5996 18.7477 23.2953 16.6086 23.2953 16.6086C23.2953 16.6086 20.7332 13.1907 19.8442 10.6543C19.0634 8.427 18.8088 4.69998 18.8088 4.69998H17.4283V15.9269C18.3003 16.0135 18.9813 16.7493 18.9813 17.6442C18.9813 18.5391 18.3003 19.275 17.4283 19.3616Z" fill="#53A8CB"/>
<rect id="Rectangle 487" x="12.0792" y="24.03" width="10.3535" height="10.3553" fill="#53A8CB"/>
</g>
</svg>
