<svg width="46" height="46" viewBox="0 0 46 46" fill="none" xmlns="http://www.w3.org/2000/svg">
<g id="Group 33">
<path id="Fill 3" fill-rule="evenodd" clip-rule="evenodd" d="M40.4099 39.7911L31.4074 30.7894L33.7486 28.4492L42.7511 37.4503C42.7511 37.4503 40.4106 39.7917 40.4099 39.7911ZM37.2033 40.9801C35.2205 42.9626 31.7162 43.2901 27.3358 41.9021C22.6468 40.4164 17.6382 37.1726 13.2328 32.7678C8.82742 28.3631 5.5831 23.3553 4.09778 18.6678C2.70961 14.288 3.03712 10.7836 5.01929 8.80047H5.01995L5.26805 8.55176L12.2542 15.5375L11.6136 16.1786C11.6136 16.1793 11.613 16.1799 11.6123 16.1799C8.95803 18.8371 12.1472 24.8063 16.6714 29.3298C20.0575 32.7153 24.2536 35.3534 27.2649 35.3534C28.2776 35.3534 29.1558 35.0548 29.8253 34.3868C29.8253 34.3861 29.8253 34.3861 29.8253 34.3861L30.4659 33.7456L37.452 40.7314L37.2033 40.9801ZM8.5487 3.25574L17.5518 12.2568L15.2119 14.5989L15.2106 14.5976L15.1771 14.5641L10.7087 10.0971L6.20816 5.59656L8.5487 3.25574ZM35.6971 26.5004C34.6227 25.4261 32.8742 25.4261 31.7997 26.5004L29.4585 28.8412C28.7248 29.5749 28.4931 30.6216 28.7608 31.5541L27.8774 32.4375C27.8774 32.4381 27.8774 32.4381 27.8767 32.4381C27.2499 33.0661 23.3434 32.1028 18.6209 27.3817C13.8998 22.6607 12.9363 18.7554 13.5631 18.1274L14.4472 17.2434C14.6973 17.315 14.9546 17.3517 15.2119 17.3517C15.9181 17.3517 16.6237 17.0826 17.1612 16.5458L19.5024 14.2057C20.5769 13.1307 20.5769 11.3832 19.5024 10.3082L10.4993 1.30718C9.97881 0.786779 9.28702 0.5 8.5506 0.5C7.81418 0.5 7.12305 0.786779 6.60191 1.30718L4.26072 3.64801C3.52758 4.38169 3.29589 5.42905 3.56302 6.36158C3.56302 6.36158 2.81478 7.11691 2.77737 7.16482C0.28719 9.9322 -0.18013 14.2903 1.47058 19.5002C3.08782 24.6019 6.57303 30.0054 11.2849 34.7166C15.9969 39.4271 21.4019 42.9124 26.5037 44.5294C28.5534 45.1784 30.4706 45.5 32.2119 45.5C35.0664 45.5 37.447 44.6344 39.1528 42.9288L39.6437 42.4373C39.8899 42.5088 40.1465 42.5462 40.4097 42.5462C41.1461 42.5462 41.8379 42.2601 42.3584 41.7397L44.6996 39.3982C45.774 38.3246 45.774 36.5764 44.6996 35.5015L35.6971 26.5004Z" fill="#EC99BA"/>
<path id="Fill 5" fill-rule="evenodd" clip-rule="evenodd" d="M35.9816 20.0584C35.9816 20.6959 36.5192 21.2135 37.1827 21.2135C37.8456 21.2135 38.3833 20.6959 38.3833 20.0584C38.3833 16.9523 37.1255 14.032 34.8417 11.8357C32.5578 9.63931 29.5213 8.4292 26.2914 8.4292C25.628 8.4292 25.0903 8.94625 25.0903 9.58431C25.0903 10.2218 25.628 10.7389 26.2914 10.7389C28.8796 10.7389 31.3127 11.7081 33.1435 13.4688C34.9738 15.2289 35.9816 17.5694 35.9816 20.0584Z" fill="#EC99BA"/>
<path id="Fill 7" fill-rule="evenodd" clip-rule="evenodd" d="M39.0409 6.19057C35.0825 2.52091 29.8196 0.5 24.2224 0.5C23.4578 0.5 22.8381 1.07505 22.8381 1.78331C22.8381 2.49158 23.4578 3.06662 24.2224 3.06662C29.0806 3.06601 33.6481 4.81987 37.0838 8.00493C40.5188 11.19 42.4106 15.4237 42.4106 19.9275C42.4106 20.637 43.0303 21.2108 43.7949 21.2108C44.5589 21.2108 45.1786 20.637 45.1786 19.9275C45.1792 14.7386 42.9986 9.86023 39.0409 6.19057Z" fill="#EC99BA"/>
<path id="Fill 9" fill-rule="evenodd" clip-rule="evenodd" d="M26.1736 14.9243C25.5752 14.9243 25.0903 15.3935 25.0903 15.9736C25.0908 16.5528 25.5758 17.0225 26.1736 17.022H26.1741C27.0655 17.022 27.8383 17.3318 28.4692 17.9434C29.0908 18.546 29.4194 19.3145 29.4194 20.1665C29.4194 20.7456 29.9043 21.2158 30.5027 21.2158C31.1006 21.2158 31.5855 20.7456 31.5855 20.1665C31.586 18.7459 31.0376 17.4647 30.0002 16.4593C28.9634 15.455 27.6402 14.9243 26.1736 14.9243Z" fill="#EC99BA"/>
</g>
</svg>
