<svg width="236" height="80" viewBox="0 0 236 80" fill="none" xmlns="http://www.w3.org/2000/svg">
<g id="playstore">
<path id="background" fill-rule="evenodd" clip-rule="evenodd" d="M9.6 0C4.29807 0 0 4.29807 0 9.6V70.4C0 75.7019 4.29807 80 9.6 80H226.4C231.702 80 236 75.7019 236 70.4V9.6C236 4.29807 231.702 0 226.4 0H9.6Z" fill="black"/>
<g id="icon">
<path id="orange" fill-rule="evenodd" clip-rule="evenodd" d="M28.7896 38.4036C28.7896 38.4036 12.5068 29.37 11.5505 28.8392C10.5926 28.3085 9.63947 28.6305 9.63947 29.7397C9.63947 31.5885 9.63947 49.0247 9.63947 49.0247C9.63947 49.0247 9.63947 67.8698 9.63947 68.7017C9.63947 69.5321 10.3205 69.8923 11.1527 69.4317C11.9833 68.9711 28.7896 59.6458 28.7896 59.6458C28.7896 59.6458 31.0727 58.3798 32.2143 57.7468C34.0514 56.7281 37.7258 54.6907 37.7258 54.6907C37.7258 54.6907 45.3079 50.483 46.3167 49.9252C47.3239 49.3658 47.2269 48.5992 46.3772 48.1577C45.5259 47.7178 37.7258 43.3603 37.7258 43.3603L28.7896 38.4036Z" fill="url(#paint0_linear_712_14178)"/>
<g id="blue">
<path id="Clip 2" fill-rule="evenodd" clip-rule="evenodd" d="M31.7969 48.96L10.3859 28.64C9.88637 28.7562 9.58698 29.1304 9.58698 29.76C9.58698 31.5996 9.58698 49.0337 9.58698 48.96C9.58698 49.0337 9.58698 67.8765 9.58698 68.64C9.58698 69.1742 9.80204 69.4921 10.0663 69.6L31.7969 48.96Z" fill="url(#paint1_linear_712_14178)"/>
<mask id="mask0_712_14178" style="mask-type:luminance" maskUnits="userSpaceOnUse" x="9" y="28" width="23" height="42">
<path id="Clip 2_2" fill-rule="evenodd" clip-rule="evenodd" d="M31.7969 48.96L10.3859 28.64C9.88637 28.7562 9.58698 29.1304 9.58698 29.76C9.58698 31.5996 9.58698 49.0337 9.58698 48.96C9.58698 49.0337 9.58698 67.8765 9.58698 68.64C9.58698 69.1742 9.80204 69.4921 10.0663 69.6L31.7969 48.96Z" fill="white"/>
</mask>
<g mask="url(#mask0_712_14178)">
</g>
</g>
<g id="red">
<mask id="mask1_712_14178" style="mask-type:luminance" maskUnits="userSpaceOnUse" x="10" y="48" width="28" height="22">
<path id="Clip 8" fill-rule="evenodd" clip-rule="evenodd" d="M10.948 69.4863L23.3235 62.6788C26.3711 60.9878 28.7896 59.6458 28.7896 59.6458L37.7893 54.7918L31.7977 48.9619L10.0675 69.6045C10.3097 69.6825 10.7366 69.6399 11.0696 69.4753" fill="white"/>
</mask>
<g mask="url(#mask1_712_14178)">
<path id="Fill 7" fill-rule="evenodd" clip-rule="evenodd" d="M28.761 38.4C28.7296 38.4722 12.4532 29.4219 11.5044 28.96C10.5397 28.3585 9.58698 28.6811 9.58698 29.76C9.58698 31.6446 9.58698 49.1128 9.58698 49.12C9.58698 49.1128 9.58698 67.9925 9.58698 68.8C9.58698 69.6578 10.2677 70.0187 11.025 69.6C11.9299 69.0958 28.7296 59.7534 28.761 59.68L37.7088 54.72C37.6624 54.7891 45.2415 50.5738 46.1774 50.08C47.2567 49.4545 47.1597 48.6864 46.3371 48.32C45.4594 47.8035 37.6624 43.438 37.7088 43.36L28.761 38.4Z" fill="url(#paint2_linear_712_14178)"/>
</g>
</g>
<g id="green">
<path id="Clip 5" fill-rule="evenodd" clip-rule="evenodd" d="M11.5216 28.8235C11.1095 28.6025 10.6999 28.5392 10.3687 28.6286L31.7974 48.9782L37.7258 43.3603L28.7896 38.4036C28.7896 38.4036 20.3669 33.7308 15.2813 30.9092L11.5216 28.8235Z" fill="url(#paint3_linear_712_14178)"/>
<mask id="mask2_712_14178" style="mask-type:luminance" maskUnits="userSpaceOnUse" x="10" y="28" width="28" height="21">
<path id="Clip 5_2" fill-rule="evenodd" clip-rule="evenodd" d="M11.5216 28.8235C11.1095 28.6025 10.6999 28.5392 10.3687 28.6286L31.7974 48.9782L37.7258 43.3603L28.7896 38.4036C28.7896 38.4036 20.3669 33.7308 15.2813 30.9092L11.5216 28.8235Z" fill="white"/>
</mask>
<g mask="url(#mask2_712_14178)">
</g>
</g>
</g>
<g id="Google play">
<path id="Fill 1" fill-rule="evenodd" clip-rule="evenodd" d="M161.639 55.8191L159.87 57.5008C159.461 57.7272 159.054 57.99 158.649 58.1766C157.42 58.7386 156.17 58.88 155.059 58.88C153.878 58.88 152.025 58.8027 150.135 57.4257C147.509 55.563 146.362 52.3608 146.362 49.5705C146.362 43.7933 151.031 40.96 154.839 40.96C156.17 40.96 157.537 41.2956 158.649 42.0034C160.497 43.2346 160.975 44.8346 161.24 45.6914L152.543 49.2304L149.695 49.4534C150.617 54.1904 153.799 56.9454 157.314 56.9454C159.071 56.9454 160.374 56.3679 161.57 55.7728C161.57 55.7728 161.81 55.6469 161.639 55.8191ZM156.326 46.3164C157.024 46.0562 157.387 45.8317 157.387 45.3092C157.387 43.8108 155.734 42.08 153.761 42.08C152.3 42.08 149.557 43.2472 149.557 47.3002C149.557 47.9327 149.631 48.6063 149.668 49.28L156.326 46.3164Z" fill="white"/>
<path id="Fill 2" fill-rule="evenodd" clip-rule="evenodd" d="M143.49 55.6165C143.49 57.0605 143.745 57.2853 144.957 57.3987C145.589 57.4736 146.218 57.5067 146.841 57.5816L145.477 58.4H138.979C139.831 57.2853 139.978 57.174 139.978 56.4316V55.6022L139.964 33.5016H137.094L139.856 32.16H145.13C143.987 32.8275 143.645 33.2339 143.498 34.5348L143.49 55.6165Z" fill="white"/>
<path id="Fill 3" fill-rule="evenodd" clip-rule="evenodd" d="M133.408 42.7836C134.253 43.4852 136.017 44.9742 136.017 47.7981C136.017 50.5503 134.48 51.8477 132.93 53.0757C132.454 53.5592 131.898 54.0834 131.898 54.894C131.898 55.7167 132.454 56.1628 132.855 56.4954L134.184 57.5318C135.801 58.9095 137.275 60.1728 137.275 62.7389C137.275 66.2346 133.924 69.76 127.591 69.76C122.257 69.76 119.678 67.195 119.678 64.4449C119.678 63.1068 120.338 61.2114 122.515 59.9129C124.797 58.5043 127.889 58.3159 129.545 58.2058C129.028 57.5318 128.438 56.8258 128.438 55.6738C128.438 55.0438 128.625 54.6683 128.806 54.2255C128.404 54.2641 127.998 54.3037 127.629 54.3037C123.725 54.3037 121.518 51.3631 121.518 48.4655C121.518 46.7562 122.29 44.8597 123.877 43.4852C125.975 41.7407 128.478 41.44 130.467 41.44H138.053L135.694 42.7836H133.408ZM130.818 59.2404C130.513 59.2 130.331 59.2 129.963 59.2C129.627 59.2 127.622 59.274 126.069 59.8055C125.248 60.1116 122.873 61.0164 122.873 63.7039C122.873 66.3859 125.437 68.32 129.402 68.32C132.966 68.32 134.857 66.5787 134.857 64.2343C134.857 62.3047 133.633 61.2866 130.818 59.2404ZM131.859 52.0824C132.706 51.2272 132.78 50.0458 132.78 49.3749C132.78 46.7102 131.208 42.56 128.161 42.56C127.211 42.56 126.181 43.042 125.597 43.7875C124.977 44.5594 124.791 45.5607 124.791 46.5236C124.791 49.0049 126.222 53.12 129.371 53.12C130.29 53.12 131.279 52.6687 131.859 52.0824Z" fill="white"/>
<path id="Fill 4" fill-rule="evenodd" clip-rule="evenodd" d="M110.464 58.88C104.6 58.88 101.462 54.2478 101.462 50.0536C101.462 45.153 105.407 40.96 111.017 40.96C116.441 40.96 119.837 45.2672 119.837 49.7897C119.837 54.2067 116.48 58.88 110.464 58.88ZM115.05 55.8504C115.945 54.6493 116.162 53.1502 116.162 51.6888C116.162 48.3835 114.609 42.08 110.018 42.08C108.797 42.08 107.568 42.5637 106.681 43.3534C105.235 44.6668 104.978 46.3172 104.978 47.9365C104.978 51.6443 106.785 57.76 111.272 57.76C112.72 57.76 114.198 57.0493 115.05 55.8504Z" fill="white"/>
<path id="Fill 5" fill-rule="evenodd" clip-rule="evenodd" d="M90.8102 58.88C84.9425 58.88 81.8091 54.2478 81.8091 50.0536C81.8091 45.153 85.7562 40.96 91.3668 40.96C96.7894 40.96 100.184 45.2672 100.184 49.7897C100.184 54.2067 96.8298 58.88 90.8102 58.88ZM95.3985 55.8504C96.2875 54.6493 96.5091 53.1502 96.5091 51.6888C96.5091 48.3835 94.9507 42.08 90.3619 42.08C89.136 42.08 87.9189 42.5637 87.0299 43.3534C85.5811 44.6668 85.3243 46.3172 85.3243 47.9365C85.3243 51.6443 87.1407 57.76 91.6219 57.76C93.0673 57.76 94.5435 57.0493 95.3985 55.8504Z" fill="white"/>
<path id="Fill 6" fill-rule="evenodd" clip-rule="evenodd" d="M79.3764 57.7728L74.4093 58.9191C72.3968 59.2389 70.5897 59.5199 68.676 59.5199C59.0954 59.5199 55.4448 52.413 55.4448 46.8507C55.4448 40.058 60.6172 33.7599 69.4753 33.7599C71.3494 33.7599 73.1522 34.0377 74.7947 34.4891C77.3979 35.226 78.6155 36.1345 79.3764 36.6667L76.491 39.4285L75.2745 39.7029L76.1419 38.3098C74.9671 37.1535 72.8075 35.0191 68.7089 35.0191C63.2291 35.0191 59.0954 39.2171 59.0954 45.3459C59.0954 51.9284 63.8154 58.1202 71.3856 58.1202C73.6101 58.1202 74.7552 57.6699 75.7949 57.2494V51.6064L70.5501 51.8908L73.3301 50.3859H80.6906L79.7903 51.259C79.5476 51.467 79.5147 51.5378 79.4466 51.8166C79.4104 52.1353 79.3764 53.1488 79.3764 53.5051V57.7728Z" fill="white"/>
<path id="Fill 7_2" fill-rule="evenodd" clip-rule="evenodd" d="M172.359 55.9903V65.44H170.489V41.3942H172.359V44.1329C173.577 42.3628 175.803 40.96 178.388 40.96C183.025 40.96 186.148 44.4902 186.148 50.0787C186.148 55.6297 183.025 59.2337 178.388 59.2337C175.947 59.2337 173.761 57.9704 172.359 55.9903ZM184.23 50.2227C184.23 45.9664 182.035 42.72 178.141 42.72C175.723 42.72 173.411 44.6398 172.406 46.3141V54.0925C173.411 55.7701 175.723 57.76 178.141 57.76C182.035 57.76 184.23 54.4858 184.23 50.2227Z" fill="white"/>
<path id="Fill 8" fill-rule="evenodd" clip-rule="evenodd" d="M188.704 34.72H190.622V58.88H188.704V34.72Z" fill="white"/>
<path id="Fill 9" fill-rule="evenodd" clip-rule="evenodd" d="M211.467 63.7761C211.867 63.9554 212.55 64.0654 212.982 64.0654C214.126 64.0654 214.923 63.5958 215.638 61.9375L217.002 58.8353L209.636 41.28H211.722L218.04 56.493L224.298 41.28H226.413L217.429 62.5192C216.497 64.7076 215.03 65.76 213.015 65.76C212.411 65.76 211.613 65.6522 211.146 65.5081L211.467 63.7761Z" fill="white"/>
<path id="Fill 10" fill-rule="evenodd" clip-rule="evenodd" d="M206.19 58.8561C206.065 58.2492 205.97 57.714 205.901 57.2674C205.843 56.8218 205.81 56.3663 205.81 55.9031C205.166 56.8528 204.253 57.6433 203.086 58.2657C201.918 58.8926 200.809 59.2 199.287 59.2C197.455 59.2 196.033 58.7478 195.018 57.8301C194.007 56.9136 193.498 55.672 193.498 54.101C193.498 52.5322 194.235 51.2585 195.704 50.2845C197.174 49.306 199.073 48.8196 201.424 48.8196H205.81V46.6449C205.81 45.3923 205.385 44.4072 204.536 43.693C203.683 42.9777 202.486 42.6161 200.935 42.6161C199.517 42.6161 198.367 42.9467 197.491 43.5902C196.623 44.2469 196.186 45.0606 196.186 46.0412H194.261L194.221 45.9473C194.152 44.625 194.755 43.4652 196.036 42.4636C197.312 41.463 198.983 40.96 201.04 40.96C203.09 40.96 204.749 41.4553 206 42.4437C207.249 43.4221 207.876 44.8362 207.876 46.6847V55.3193C207.876 55.9396 207.906 56.5388 207.983 57.1226C208.062 57.7074 208.189 58.2912 208.357 58.8561H206.19ZM199.513 57.6C201.109 57.6 202.256 57.2399 203.429 56.5276C204.593 55.8197 205.386 54.8962 205.801 53.7783V50.4H201.398C199.716 50.4 198.323 50.7756 197.228 51.5335C196.131 52.2891 195.575 53.2037 195.575 54.2672C195.575 55.2707 195.927 56.0731 196.627 56.6809C197.329 57.2955 198.289 57.6 199.513 57.6Z" fill="white"/>
</g>
<g id="Get it on">
<path id="Fill 1_2" fill-rule="evenodd" clip-rule="evenodd" d="M54.8125 18.4498C54.8125 15.0034 57.5609 12.7864 60.9785 12.7864C63.269 12.7864 64.767 13.8047 65.7004 15.0516L64.0274 15.955C63.3934 15.1336 62.2828 14.4948 60.9785 14.4948C58.6539 14.4948 56.9269 16.1354 56.9269 18.4498C56.9269 20.7303 58.6539 22.4048 60.9785 22.4048C62.1771 22.4048 63.2338 21.8962 63.7621 21.4204V19.7295H60.2389V18.0386H65.8061V22.1259C64.6614 23.3246 63.0049 24.1285 60.9785 24.1285C57.5609 24.1285 54.8125 21.8808 54.8125 18.4498Z" fill="white"/>
<path id="Fill 2_2" fill-rule="evenodd" clip-rule="evenodd" d="M68.4712 23.9617V12.9532H76.6331V14.6545H70.561V17.4919H76.5081V19.1921H70.561V22.2615H76.6331V23.9617H68.4712Z" fill="white"/>
<path id="Fill 3_2" fill-rule="evenodd" clip-rule="evenodd" d="M82.1838 23.9617V14.6545H78.632V12.9532H87.7933V14.6545H84.2415V23.9617H82.1838Z" fill="white"/>
<path id="Fill 4_2" fill-rule="evenodd" clip-rule="evenodd" d="M95.1223 12.9532H97.1211V23.9617H95.1223V12.9532Z" fill="white"/>
<path id="Fill 5_2" fill-rule="evenodd" clip-rule="evenodd" d="M102.839 23.9617V14.6545H99.2866V12.9532H108.448V14.6545H104.897V23.9617H102.839Z" fill="white"/>
<path id="Fill 6_2" fill-rule="evenodd" clip-rule="evenodd" d="M115.277 18.458C115.277 15.1863 117.791 12.7864 121.358 12.7864C124.904 12.7864 127.437 15.1863 127.437 18.458C127.437 21.7287 124.904 24.1285 121.358 24.1285C117.791 24.1285 115.277 21.7287 115.277 18.458ZM125.271 18.3741C125.271 16.1292 123.731 14.4544 121.358 14.4544C118.966 14.4544 117.443 16.1292 117.443 18.3741C117.443 20.6017 118.966 22.2938 121.358 22.2938C123.731 22.2938 125.271 20.6017 125.271 18.3741Z" fill="white"/>
<path id="Fill 7_3" fill-rule="evenodd" clip-rule="evenodd" d="M137.943 23.9617L131.825 16.0897V23.9617H129.769V12.9532H131.878L137.873 20.5789V12.9532H139.93V23.9617H137.943Z" fill="white"/>
</g>
</g>
<defs>
<linearGradient id="paint0_linear_712_14178" x1="22.0864" y1="39.0903" x2="35.7122" y2="59.0058" gradientUnits="userSpaceOnUse">
<stop stop-color="#FF177B"/>
<stop offset="1" stop-color="#FFEC73"/>
</linearGradient>
<linearGradient id="paint1_linear_712_14178" x1="1.71475" y1="3.00449" x2="-22.7126" y2="54.8019" gradientUnits="userSpaceOnUse">
<stop stop-color="#064AA2"/>
<stop offset="1" stop-color="#63FFD4"/>
</linearGradient>
<linearGradient id="paint2_linear_712_14178" x1="29.6446" y1="33.5435" x2="-0.394971" y2="51.478" gradientUnits="userSpaceOnUse">
<stop stop-color="#FF4521"/>
<stop offset="1" stop-color="#8A33DB"/>
</linearGradient>
<linearGradient id="paint3_linear_712_14178" x1="-6.59703" y1="30.2" x2="4.11912" y2="58.0623" gradientUnits="userSpaceOnUse">
<stop stop-color="#00A3B5"/>
<stop offset="1" stop-color="#D6FFA1"/>
</linearGradient>
</defs>
</svg>
