<svg width="96" height="96" viewBox="0 0 96 96" fill="none" xmlns="http://www.w3.org/2000/svg">
<g id="regular_chat">
<path id="Union" d="M44.7651 69.3197H47.1651V67.2327L45.0983 66.943L44.7651 69.3197ZM44.7651 83.9999H42.3651V89.5209L46.4022 85.7548L44.7651 83.9999ZM68.052 62.2764L69.6891 64.0313L67.4219 59.9606L68.052 62.2764ZM67.9619 62.3009L66.3645 60.5097L68.5921 64.6167L67.9619 62.3009ZM22.4 40.8001C22.4 26.2197 34.2197 14.4 48.8001 14.4V9.6C31.5688 9.6 17.6 23.5688 17.6 40.8001H22.4ZM45.0983 66.943C32.2713 65.1446 22.4 54.1231 22.4 40.8001H17.6C17.6 56.5499 29.2677 69.5705 44.4319 71.6965L45.0983 66.943ZM47.1651 83.9999V69.3197H42.3651V83.9999H47.1651ZM66.4149 60.5214L43.128 82.2449L46.4022 85.7548L69.6891 64.0313L66.4149 60.5214ZM68.5921 64.6167L68.6821 64.5922L67.4219 59.9606L67.3318 59.9851L68.5921 64.6167ZM75.2002 40.8001C75.2002 48.6355 71.7897 55.6713 66.3645 60.5097L69.5594 64.092C75.9625 58.3814 80.0002 50.0607 80.0002 40.8001H75.2002ZM48.8001 14.4C63.3804 14.4 75.2002 26.2197 75.2002 40.8001H80.0002C80.0002 23.5688 66.0314 9.6 48.8001 9.6V14.4Z" fill="#53A8CB"/>
</g>
</svg>
