<svg width="37" height="37" viewBox="0 0 37 37" fill="none" xmlns="http://www.w3.org/2000/svg">
<g id="Group 40">
<path id="Path" d="M18.4828 2C8.98845 2 1.30005 9.5565 1.30005 18.8672C1.30005 28.1779 8.98845 35.7344 18.4828 35.7344C27.9944 35.7344 35.7 28.1779 35.7 18.8672C35.7 9.5565 27.9944 2 18.4828 2Z" stroke="#47525D" stroke-width="2.15"/>
<path id="Path_2" d="M24.5213 17.1805C25.9489 17.1805 27.1013 16.0504 27.1013 14.6505C27.1013 13.2505 25.9489 12.1204 24.5213 12.1204C23.0937 12.1204 21.9413 13.2505 21.9413 14.6505C21.9413 16.0504 23.0937 17.1805 24.5213 17.1805Z" fill="#47525D"/>
<path id="Path_3" d="M12.48 17.1805C13.9076 17.1805 15.06 16.0504 15.06 14.6505C15.06 13.2505 13.9076 12.1204 12.48 12.1204C11.0524 12.1204 9.90002 13.2505 9.90002 14.6505C9.90002 16.0504 11.0524 17.1805 12.48 17.1805Z" fill="#47525D"/>
<path id="Path_4" d="M18.501 28.1443C21.9926 28.1443 25.037 26.272 26.671 23.5058C26.9978 22.9492 26.585 22.2407 25.9142 22.2407H11.0878C10.4342 22.2407 10.0042 22.9492 10.331 23.5058C11.965 26.272 15.0094 28.1443 18.501 28.1443Z" fill="#47525D"/>
</g>
</svg>
