<svg width="29" height="24" viewBox="0 0 29 24" fill="none" xmlns="http://www.w3.org/2000/svg">
<path id="Twitter1" fill-rule="evenodd" clip-rule="evenodd" d="M25.5837 3.79459C26.8127 3.04573 27.7557 1.8583 28.2 0.443781C27.0493 1.13717 25.7778 1.64161 24.4194 1.91204C23.3369 0.735005 21.7896 1.14441e-05 20.0772 1.14441e-05C16.7937 1.14441e-05 14.1298 2.7129 14.1298 6.05851C14.1298 6.53348 14.1808 6.99459 14.283 7.43836C9.33815 7.18527 4.95504 4.77574 2.01878 1.10597C1.50643 2.00391 1.21365 3.04573 1.21365 4.15515C1.21365 6.25613 2.2639 8.11095 3.86054 9.19784C2.88689 9.16837 1.96772 8.89274 1.16429 8.44204V8.51658C1.16429 11.4531 3.21541 13.9025 5.9389 14.4572C5.44016 14.5993 4.91419 14.6704 4.37119 14.6704C3.9882 14.6704 3.61372 14.634 3.25116 14.5629C4.00863 16.969 6.20444 18.7216 8.80877 18.7684C6.77296 20.3944 4.20608 21.3634 1.41962 21.3634C0.939602 21.3634 0.464694 21.3356 0 21.2802C2.63327 22.9963 5.76187 24 9.12027 24C20.0653 24 26.0484 14.7692 26.0484 6.7623C26.0484 6.49881 26.0433 6.23532 26.0331 5.97704C27.1957 5.12243 28.2051 4.05635 29 2.84118C27.9344 3.32309 26.7872 3.64898 25.5837 3.79459Z" fill="#00AAEC"/>
</svg>
