<svg width="24" height="18" viewBox="0 0 24 18" fill="none" xmlns="http://www.w3.org/2000/svg">
<path id="Youtube1" fill-rule="evenodd" clip-rule="evenodd" d="M9.522 12.1349L9.52125 5.34385L16.0058 8.7511L9.522 12.1349ZM23.76 4.16708C23.76 4.16708 23.5252 2.5016 22.806 1.76819C21.8932 0.805157 20.8703 0.800625 20.4015 0.744731C17.043 0.500008 12.0052 0.500008 12.0052 0.500008H11.9948C11.9948 0.500008 6.957 0.500008 3.5985 0.744731C3.129 0.800625 2.10675 0.805157 1.19325 1.76819C0.474 2.5016 0.24 4.16708 0.24 4.16708C0.24 4.16708 0 6.12336 0 8.07889V9.9128C0 11.8691 0.24 13.8246 0.24 13.8246C0.24 13.8246 0.474 15.4901 1.19325 16.2235C2.10675 17.1865 3.306 17.1563 3.84 17.2568C5.76 17.4426 12 17.5 12 17.5C12 17.5 17.043 17.4924 20.4015 17.2477C20.8703 17.1911 21.8932 17.1865 22.806 16.2235C23.5252 15.4901 23.76 13.8246 23.76 13.8246C23.76 13.8246 24 11.8691 24 9.9128V8.07889C24 6.12336 23.76 4.16708 23.76 4.16708Z" fill="#CE1312"/>
</svg>
